<?xml version="1.0" encoding="utf-8"?>
<!-- Generator: Adobe Illustrator 26.0.2, SVG Export Plug-In . SVG Version: 6.00 Build 0)  -->
<svg version="1.1" id="Layer_1" xmlns="http://www.w3.org/2000/svg" xmlns:xlink="http://www.w3.org/1999/xlink" x="0px" y="0px"
	 viewBox="0 0 21 21" style="enable-background:new 0 0 21 21;" xml:space="preserve">
<style type="text/css">
	.st0{fill:#F7931A;}
	.st1{fill:#FFFFFF;}
</style>
<g>
	<g transform="translate(-305 -602) translate(305 602)">
		<ellipse class="st0" cx="10.4" cy="10.5" rx="10.4" ry="10.2"/>
		<path class="st1" d="M7.6,5.3c0.4,0.1,0.7,0.2,1.1,0.3C9,5.6,9.4,5.7,9.7,5.8c0.1,0,0.1,0,0.2-0.1c0.1-0.6,0.3-1.1,0.4-1.6
			c0-0.1,0.1-0.1,0.2-0.1c0.3,0.1,0.6,0.2,1,0.2c0.1,0,0.1,0.1,0.1,0.1c-0.1,0.5-0.3,1.1-0.4,1.6c0,0,0,0.1,0,0.1
			c0.3,0.1,0.6,0.1,0.8,0.2c0,0,0.1-0.1,0.1-0.1c0.1-0.4,0.2-0.8,0.3-1.2l0.1-0.4c0-0.1,0-0.1,0.1-0.1c0.3,0.1,0.7,0.2,1,0.3
			c0,0,0,0,0.1,0c-0.1,0.4-0.2,0.8-0.3,1.2c0,0.2-0.1,0.3-0.1,0.5c0,0.1,0,0.1,0.1,0.2l1.1,0.5c0.3,0.2,0.6,0.5,0.9,0.8
			c0.3,0.5,0.3,1,0.2,1.5c-0.1,0.4-0.2,0.7-0.5,0.9c-0.2,0.2-0.5,0.3-0.7,0.4c0,0-0.1,0-0.1,0c0.1,0.1,0.3,0.2,0.4,0.3
			c0.4,0.3,0.7,0.6,0.8,1.1c0.1,0.4,0,0.7-0.1,1.1c-0.1,0.5-0.3,0.8-0.6,1.2c-0.4,0.4-0.8,0.6-1.3,0.7c-0.7,0.1-1.3,0-2-0.1
			c-0.1,0-0.2,0-0.2,0.1c-0.1,0.5-0.3,1.1-0.4,1.6c0,0.1,0,0.2-0.2,0.1c-0.3-0.1-0.6-0.2-0.9-0.2c-0.1,0-0.1-0.1-0.1-0.1
			c0.1-0.5,0.3-1.1,0.4-1.6c0-0.1,0-0.1,0-0.1c-0.3-0.1-0.5-0.1-0.8-0.2c-0.1,0.3-0.2,0.6-0.2,0.9c-0.1,0.3-0.2,0.6-0.2,0.9
			c0,0.1,0,0.1-0.1,0.1c-0.3-0.1-0.7-0.2-1-0.2c-0.1,0-0.1-0.1-0.1-0.1c0.1-0.5,0.3-1.1,0.4-1.6c0,0,0-0.1,0-0.1
			c-0.8-0.2-1.5-0.4-2.3-0.6c0.1-0.1,0.1-0.2,0.2-0.4C5.8,13,6,12.7,6.1,12.5c0-0.1,0.1-0.1,0.2-0.1c0.2,0.1,0.5,0.1,0.7,0.2
			c0.3,0.1,0.5-0.1,0.5-0.3c0.4-1.6,0.9-3.3,1.2-5C8.8,7,8.6,6.7,8.3,6.6C8,6.5,7.7,6.5,7.4,6.4c-0.1,0-0.1,0-0.1-0.1
			C7.5,5.9,7.6,5.6,7.6,5.3C7.5,5.3,7.5,5.3,7.6,5.3z M9.3,13.2C9.3,13.2,9.3,13.3,9.3,13.2c0.6,0.2,1.1,0.3,1.7,0.4
			c0.4,0,0.8,0,1.1-0.1c0.6-0.2,0.9-1,0.5-1.5c-0.2-0.3-0.4-0.4-0.7-0.6c-0.6-0.3-1.3-0.5-1.9-0.6c-0.1,0-0.1,0-0.1,0.1
			c-0.1,0.3-0.2,0.6-0.2,0.9C9.5,12.3,9.4,12.8,9.3,13.2L9.3,13.2z M12,10c0.1,0,0.2,0,0.4-0.1C13,9.8,13.3,9,13,8.5
			c-0.2-0.3-0.5-0.5-0.8-0.6c-0.5-0.2-0.9-0.3-1.4-0.4c-0.1,0-0.1,0-0.2,0.1c-0.2,0.7-0.3,1.3-0.5,2c0,0.1,0,0.1,0.1,0.1
			c0.1,0,0.2,0.1,0.4,0.1C11.1,9.9,11.5,10,12,10z"/>
	</g>
</g>
</svg>
