<?xml version="1.0" encoding="utf-8"?>
<!-- Generator: Adobe Illustrator 26.0.2, SVG Export Plug-In . SVG Version: 6.00 Build 0)  -->
<svg version="1.1" id="Layer_1" xmlns="http://www.w3.org/2000/svg" xmlns:xlink="http://www.w3.org/1999/xlink" x="0px" y="0px"
	 viewBox="0 0 2000 2000" style="enable-background:new 0 0 2000 2000;" xml:space="preserve">
<style type="text/css">
	.st0{fill:#50AF95;}
	.st1{fill-rule:evenodd;clip-rule:evenodd;fill:#FFFFFF;}
</style>
<path class="st0" d="M1000,2000c554.2,0,1000-445.8,1000-1000S1554.2,0,1000,0S0,445.8,0,1000S445.8,2000,1000,2000z"/>
<path class="st1" d="M1129.1,1097.9L1129.1,1097.9c-7.2,0.5-44.5,2.8-127.5,2.8c-66.1,0-113-2-129.5-2.8l0,0
	c-255.4-11.2-446-55.7-446-108.9s190.6-97.6,446-109v173.7c16.7,1.2,64.5,4,130.6,4c79.3,0,119-3.3,126.2-4V880.1
	c254.8,11.4,445,55.8,445,108.9c0,53.1-190.1,97.6-445,108.9l0,0L1129.1,1097.9z M1129.1,862.1V706.7h355.6v-237H516.4v237H872V862
	c-289,13.3-506.4,70.5-506.4,139.1S583,1127,872,1140.3v498h257v-498.2c288.3-13.3,505.3-70.5,505.3-139S1417.5,875.4,1129.1,862.1
	L1129.1,862.1L1129.1,862.1z M1129.1,862.1L1129.1,862.1z"/>
</svg>
